<svg xmlns="http://www.w3.org/2000/svg" viewBox="0 0 214.37 192.76"><defs><style>.cls-1{fill:#376e94;}.cls-1,.cls-2,.cls-3,.cls-6{stroke:#373435;}.cls-1,.cls-2,.cls-3,.cls-4,.cls-6{stroke-miterlimit:22.93;}.cls-2{fill:#94774d;}.cls-3{fill:#94932f;}.cls-4{fill:#3b4792;stroke:#000;fill-rule:evenodd;}.cls-5{isolation:isolate;font-size:16.75px;fill:#fefefe;font-family:MyriadPro-Regular, Myriad Pro;}.cls-6{fill:#6b4694;}</style></defs><title>Página Inicial</title><g id="Camada_2" data-name="Camada 2"><g id="Camada_1-2" data-name="Camada 1"><g id="Camada_1-3" data-name="Camada_1"><g id="_2960202667008" data-name=" 2960202667008"><circle class="cls-1" cx="199.86" cy="38.07" r="14.01"/><circle class="cls-2" cx="26.55" cy="17.12" r="14.01"/><circle class="cls-3" cx="116.09" cy="14.51" r="14.01"/><path class="cls-4" d="M26,42a22.5,22.5,0,0,0,3.42,8.67C31.59,54.1,39,58.84,43.18,61c26.16,13.49,43,14.14,56.35,39.5,6.66,12.7,10,23.06,8.19,40-2.73-1.53-4.79-3.84-8.12-5.89a45.63,45.63,0,0,0-10.25-4.5c-22.15-6.55-40.94,4.22-51.11-2.48-6.39-7.5-26.87-24.59-9.24,5.18,4.78,5.61,7.29,8.32,17.66,8.31,19.29,0,27.29-.75,42.53,14.63a36.68,36.68,0,0,1,6.2,8.53c8,13.89-1,9.72-9.12,27.81l79.13.14c5.22-16.28,2.63-27,.55-44.9-.87-7.49-1.45-14-3.75-21.05s-5.45-10.79-8-16.77c-2.15-5,4-13.44,6.77-16.12a63,63,0,0,1,6.74-5.33l4.08-3.3a16.75,16.75,0,0,0,5.1-5.74c30.44-47.92,1.15-21.85-7.45-10C155.13,88.74,112.26,87.3,97.17,65c-3.77-5.59-4.31-7.43-1.34-13.68,5.42-11.35,19-28.48,5.77-22.24C84.25,37.26,82.47,67.39,50.79,51.43c-12.65-6.37-13.37-6.27-20.58-16.31C25.93,30.56,25.59,39.18,26,42Z"/><text class="cls-5" transform="translate(193.43 44.07)">G</text><text class="cls-5" transform="translate(109.95 20.51)">C</text><text class="cls-5" transform="translate(21.41 23.12)">T</text><circle class="cls-6" cx="14.51" cy="101.95" r="14.01"/><text class="cls-5" transform="translate(8.92 107.95)">A</text></g></g></g></g></svg>